<?xml version="1.0" encoding="UTF-8" standalone="no"?><svg xmlns="http://www.w3.org/2000/svg" xmlns:xlink="http://www.w3.org/1999/xlink" contentScriptType="application/ecmascript" contentStyleType="text/css" height="373px" preserveAspectRatio="none" style="width:477px;height:373px;background:#FFFFFF;" version="1.1" viewBox="0 0 477 373" width="477px" zoomAndPan="magnify"><defs><filter height="300%" id="feheapsl0mhe0" width="300%" x="-1" y="-1"><feGaussianBlur result="blurOut" stdDeviation="2.0"/><feColorMatrix in="blurOut" result="blurOut2" type="matrix" values="0 0 0 0 0 0 0 0 0 0 0 0 0 0 0 0 0 0 .4 0"/><feOffset dx="4.0" dy="4.0" in="blurOut2" result="blurOut3"/><feBlend in="SourceGraphic" in2="blurOut3" mode="normal"/></filter></defs><g><line style="stroke:#A80036;stroke-width:1.0;stroke-dasharray:5.0,5.0;" x1="45" x2="45" y1="59.2188" y2="311.6797"/><line style="stroke:#A80036;stroke-width:1.0;stroke-dasharray:5.0,5.0;" x1="203.5" x2="203.5" y1="59.2188" y2="311.6797"/><line style="stroke:#A80036;stroke-width:1.0;stroke-dasharray:5.0,5.0;" x1="369" x2="369" y1="59.2188" y2="311.6797"/><line style="stroke:#A80036;stroke-width:1.0;stroke-dasharray:5.0,5.0;" x1="438" x2="438" y1="59.2188" y2="311.6797"/><rect fill="#FEFECE" filter="url(#feheapsl0mhe0)" height="31.6094" style="stroke:#A80036;stroke-width:1.5;" width="42" x="22" y="22.6094"/><text fill="#000000" font-family="sans-serif" font-size="14" lengthAdjust="spacing" textLength="28" x="29" y="44.1426">EHR</text><rect fill="#FEFECE" filter="url(#feheapsl0mhe0)" height="31.6094" style="stroke:#A80036;stroke-width:1.5;" width="42" x="22" y="310.6797"/><text fill="#000000" font-family="sans-serif" font-size="14" lengthAdjust="spacing" textLength="28" x="29" y="332.2129">EHR</text><rect fill="#FEFECE" filter="url(#feheapsl0mhe0)" height="49.2188" style="stroke:#A80036;stroke-width:1.5;" width="71" x="166.5" y="5"/><text fill="#000000" font-family="sans-serif" font-size="14" lengthAdjust="spacing" textLength="57" x="173.5" y="26.5332">FHIRcast</text><text fill="#000000" font-family="sans-serif" font-size="14" lengthAdjust="spacing" textLength="25" x="189.5" y="44.1426">Hub</text><rect fill="#FEFECE" filter="url(#feheapsl0mhe0)" height="49.2188" style="stroke:#A80036;stroke-width:1.5;" width="71" x="166.5" y="310.6797"/><text fill="#000000" font-family="sans-serif" font-size="14" lengthAdjust="spacing" textLength="57" x="173.5" y="332.2129">FHIRcast</text><text fill="#000000" font-family="sans-serif" font-size="14" lengthAdjust="spacing" textLength="25" x="189.5" y="349.8223">Hub</text><rect fill="#FEFECE" filter="url(#feheapsl0mhe0)" height="31.6094" style="stroke:#A80036;stroke-width:1.5;" width="56" x="339" y="22.6094"/><text fill="#000000" font-family="sans-serif" font-size="14" lengthAdjust="spacing" textLength="42" x="346" y="44.1426">Viewer</text><rect fill="#FEFECE" filter="url(#feheapsl0mhe0)" height="31.6094" style="stroke:#A80036;stroke-width:1.5;" width="56" x="339" y="310.6797"/><text fill="#000000" font-family="sans-serif" font-size="14" lengthAdjust="spacing" textLength="42" x="346" y="332.2129">Viewer</text><rect fill="#FEFECE" filter="url(#feheapsl0mhe0)" height="49.2188" style="stroke:#A80036;stroke-width:1.5;" width="54" x="409" y="5"/><text fill="#000000" font-family="sans-serif" font-size="14" lengthAdjust="spacing" textLength="31" x="420.5" y="26.5332">FHIR</text><text fill="#000000" font-family="sans-serif" font-size="14" lengthAdjust="spacing" textLength="40" x="416" y="44.1426">server</text><rect fill="#FEFECE" filter="url(#feheapsl0mhe0)" height="49.2188" style="stroke:#A80036;stroke-width:1.5;" width="54" x="409" y="310.6797"/><text fill="#000000" font-family="sans-serif" font-size="14" lengthAdjust="spacing" textLength="31" x="420.5" y="332.2129">FHIR</text><text fill="#000000" font-family="sans-serif" font-size="14" lengthAdjust="spacing" textLength="40" x="416" y="349.8223">server</text><path d="M5,74.2188 L5,100.2188 L81,100.2188 L81,84.2188 L71,74.2188 L5,74.2188 " fill="#FBFB77" filter="url(#feheapsl0mhe0)" style="stroke:#A80036;stroke-width:1.0;"/><path d="M71,74.2188 L71,84.2188 L81,84.2188 L71,74.2188 " fill="#FBFB77" style="stroke:#A80036;stroke-width:1.0;"/><text fill="#000000" font-family="sans-serif" font-size="13" lengthAdjust="spacing" textLength="55" x="11" y="92.7139">context: -</text><polygon fill="#A80036" points="192,127.9219,202,131.9219,192,135.9219,196,131.9219" style="stroke:#A80036;stroke-width:1.0;"/><line style="stroke:#A80036;stroke-width:1.0;" x1="45" x2="198" y1="131.9219" y2="131.9219"/><text fill="#000000" font-family="sans-serif" font-size="13" lengthAdjust="spacing" textLength="100" x="52" y="127.0654">Patient-close(P1)</text><polygon fill="#A80036" points="357,158.2734,367,162.2734,357,166.2734,361,162.2734" style="stroke:#A80036;stroke-width:1.0;"/><line style="stroke:#A80036;stroke-width:1.0;" x1="204" x2="363" y1="162.2734" y2="162.2734"/><text fill="#000000" font-family="sans-serif" font-size="13" lengthAdjust="spacing" textLength="100" x="211" y="157.417">Patient-close(P1)</text><path d="M329,175.2734 L329,201.2734 L405,201.2734 L405,185.2734 L395,175.2734 L329,175.2734 " fill="#FBFB77" filter="url(#feheapsl0mhe0)" style="stroke:#A80036;stroke-width:1.0;"/><path d="M395,175.2734 L395,185.2734 L405,185.2734 L395,175.2734 " fill="#FBFB77" style="stroke:#A80036;stroke-width:1.0;"/><text fill="#000000" font-family="sans-serif" font-size="13" lengthAdjust="spacing" textLength="55" x="335" y="193.7686">context: -</text><polygon fill="#A80036" points="215,228.9766,205,232.9766,215,236.9766,211,232.9766" style="stroke:#A80036;stroke-width:1.0;"/><line style="stroke:#A80036;stroke-width:1.0;" x1="209" x2="368" y1="232.9766" y2="232.9766"/><text fill="#000000" font-family="sans-serif" font-size="13" lengthAdjust="spacing" textLength="141" x="221" y="228.1201">ImagingStudy-close(IS1)</text><polygon fill="#A80036" points="192,259.3281,202,263.3281,192,267.3281,196,263.3281" style="stroke:#A80036;stroke-width:1.0;"/><line style="stroke:#A80036;stroke-width:1.0;" x1="45" x2="198" y1="263.3281" y2="263.3281"/><text fill="#000000" font-family="sans-serif" font-size="13" lengthAdjust="spacing" textLength="135" x="52" y="258.4717">Encounter-open(P1,E1)</text><polygon fill="#A80036" points="357,289.6797,367,293.6797,357,297.6797,361,293.6797" style="stroke:#A80036;stroke-width:1.0;"/><line style="stroke:#A80036;stroke-width:1.0;" x1="204" x2="363" y1="293.6797" y2="293.6797"/><text fill="#000000" font-family="sans-serif" font-size="13" lengthAdjust="spacing" textLength="135" x="211" y="288.8232">Encounter-open(P1,E1)</text><!--MD5=[efadc2cbd3a7e8c21c71047f0875558c]
@startuml


participant EHR
participant "FHIRcast\nHub" as Hub
participant Viewer
participant "FHIR\nserver" as FS

note over of EHR
  context: -
end note
EHR -> Hub: Patient-close(P1)
Hub -> Viewer: Patient-close(P1)
note over of Viewer
  context: -
end note
Viewer -> Hub: ImagingStudy-close(IS1)
EHR -> Hub: Encounter-open(P1,E1)
Hub -> Viewer: Encounter-open(P1,E1)

@enduml

PlantUML version 1.2022.0(Tue Jan 11 17:16:42 CET 2022)
(GPL source distribution)
Java Runtime: OpenJDK Runtime Environment
JVM: OpenJDK 64-Bit Server VM
Default Encoding: Cp1252
Language: en
Country: US
--></g></svg>